# Blender 3.6.4
# www.blender.org
mtllib Circle.mtl
o Circle
v 0.145849 0.983233 0.000000
v 0.511014 0.852575 0.000000
v 0.798382 0.592120 0.000000
v 0.964203 0.241520 0.000000
v 0.983233 -0.145849 -0.000000
v 0.852575 -0.511014 -0.000000
v 0.592120 -0.798382 -0.000000
v 0.241520 -0.964203 -0.000000
v -0.145849 -0.983233 -0.000000
v -0.511014 -0.852575 -0.000000
v -0.798382 -0.592120 -0.000000
v -0.964203 -0.241520 -0.000000
v -0.983233 0.145849 0.000000
v -0.852575 0.511014 0.000000
v -0.592120 0.798382 0.000000
v -0.241520 0.964203 0.000000
v 0.334866 0.935887 0.000000
v 0.667524 0.736499 0.000000
v 0.898558 0.424986 0.000000
v 0.992795 0.048773 0.000000
v 0.935887 -0.334866 -0.000000
v 0.736499 -0.667524 -0.000000
v 0.424986 -0.898558 -0.000000
v 0.048773 -0.992795 -0.000000
v -0.334866 -0.935887 -0.000000
v -0.667524 -0.736499 -0.000000
v -0.898558 -0.424986 -0.000000
v -0.992795 -0.048773 -0.000000
v -0.935887 0.334866 0.000000
v -0.736499 0.667524 0.000000
v -0.424986 0.898558 0.000000
v -0.048773 0.992795 0.000000
v 0.048773 0.992795 0.000000
v 0.424986 0.898558 0.000000
v 0.736499 0.667524 0.000000
v 0.935887 0.334866 0.000000
v 0.992795 -0.048773 -0.000000
v 0.898558 -0.424986 -0.000000
v 0.667524 -0.736499 -0.000000
v 0.334866 -0.935887 -0.000000
v -0.048773 -0.992795 -0.000000
v -0.424986 -0.898558 -0.000000
v -0.736499 -0.667524 -0.000000
v -0.935887 -0.334866 -0.000000
v -0.992795 0.048773 0.000000
v -0.898558 0.424986 0.000000
v -0.667524 0.736499 0.000000
v -0.334866 0.935887 0.000000
v 0.241520 0.964203 0.000000
v 0.592120 0.798382 0.000000
v 0.852575 0.511014 0.000000
v 0.983233 0.145849 0.000000
v 0.964203 -0.241520 -0.000000
v 0.798382 -0.592120 -0.000000
v 0.511014 -0.852575 -0.000000
v 0.145849 -0.983233 -0.000000
v -0.241520 -0.964203 -0.000000
v -0.592120 -0.798382 -0.000000
v -0.852575 -0.511014 -0.000000
v -0.983233 -0.145849 -0.000000
v -0.964203 0.241520 0.000000
v -0.798382 0.592120 0.000000
v -0.511014 0.852575 0.000000
v -0.145849 0.983233 0.000000
vn -0.0000 -0.0000 1.0000
vt 0.000000 0.000000
s 0
f 33/1/1 32/1/1 64/1/1 16/1/1 48/1/1 31/1/1 63/1/1 15/1/1 47/1/1 30/1/1 62/1/1 14/1/1 46/1/1 29/1/1 61/1/1 13/1/1 45/1/1 28/1/1 60/1/1 12/1/1 44/1/1 27/1/1 59/1/1 11/1/1 43/1/1 26/1/1 58/1/1 10/1/1 42/1/1 25/1/1 57/1/1 9/1/1 41/1/1 24/1/1 56/1/1 8/1/1 40/1/1 23/1/1 55/1/1 7/1/1 39/1/1 22/1/1 54/1/1 6/1/1 38/1/1 21/1/1 53/1/1 5/1/1 37/1/1 20/1/1 52/1/1 4/1/1 36/1/1 19/1/1 51/1/1 3/1/1 35/1/1 18/1/1 50/1/1 2/1/1 34/1/1 17/1/1 49/1/1 1/1/1
