# Blender 4.1.1
# www.blender.org
mtllib Circle.mtl
o Circle
v -0.000000 0.500000 -0.000000
v -0.049009 0.497592 -0.000000
v -0.097545 0.490393 -0.000000
v -0.145142 0.478470 -0.000000
v -0.191342 0.461940 -0.000000
v -0.235698 0.440961 -0.000000
v -0.277785 0.415735 -0.000000
v -0.317197 0.386505 -0.000000
v -0.353553 0.353553 -0.000000
v -0.386505 0.317197 -0.000000
v -0.415735 0.277785 -0.000000
v -0.440961 0.235698 -0.000000
v -0.461940 0.191342 -0.000000
v -0.478470 0.145142 -0.000000
v -0.490393 0.097545 -0.000000
v -0.497592 0.049009 -0.000000
v -0.500000 0.000000 0.000000
v -0.497592 -0.049009 0.000000
v -0.490393 -0.097545 0.000000
v -0.478470 -0.145142 0.000000
v -0.461940 -0.191342 0.000000
v -0.440961 -0.235698 0.000000
v -0.415735 -0.277785 0.000000
v -0.386505 -0.317197 0.000000
v -0.353553 -0.353553 0.000000
v -0.317197 -0.386505 0.000000
v -0.277785 -0.415735 0.000000
v -0.235698 -0.440961 0.000000
v -0.191342 -0.461940 0.000000
v -0.145142 -0.478470 0.000000
v -0.097545 -0.490393 0.000000
v -0.049009 -0.497592 0.000000
v -0.000000 -0.500000 0.000000
v 0.049009 -0.497592 0.000000
v 0.097545 -0.490393 0.000000
v 0.145142 -0.478470 0.000000
v 0.191342 -0.461940 0.000000
v 0.235698 -0.440961 0.000000
v 0.277785 -0.415735 0.000000
v 0.317197 -0.386505 0.000000
v 0.353553 -0.353553 0.000000
v 0.386505 -0.317197 0.000000
v 0.415735 -0.277785 0.000000
v 0.440961 -0.235698 0.000000
v 0.461940 -0.191342 0.000000
v 0.478470 -0.145142 0.000000
v 0.490393 -0.097545 0.000000
v 0.497592 -0.049009 0.000000
v 0.500000 0.000000 0.000000
v 0.497592 0.049009 -0.000000
v 0.490393 0.097545 -0.000000
v 0.478470 0.145142 -0.000000
v 0.461940 0.191342 -0.000000
v 0.440961 0.235698 -0.000000
v 0.415735 0.277785 -0.000000
v 0.386505 0.317197 -0.000000
v 0.353553 0.353553 -0.000000
v 0.317197 0.386505 -0.000000
v 0.277785 0.415735 -0.000000
v 0.235698 0.440961 -0.000000
v 0.191342 0.461940 -0.000000
v 0.145142 0.478470 -0.000000
v 0.097545 0.490393 -0.000000
v 0.049009 0.497592 -0.000000
vn -0.0000 -0.0000 1.0000
vt 0.000000 0.000000
s 0
f 33/1/1 49/1/1 1/1/1
f 1/1/1 2/1/1 3/1/1
f 3/1/1 4/1/1 5/1/1
f 5/1/1 6/1/1 9/1/1
f 6/1/1 7/1/1 9/1/1
f 7/1/1 8/1/1 9/1/1
f 9/1/1 10/1/1 11/1/1
f 11/1/1 12/1/1 9/1/1
f 12/1/1 13/1/1 9/1/1
f 13/1/1 14/1/1 15/1/1
f 15/1/1 16/1/1 17/1/1
f 17/1/1 18/1/1 19/1/1
f 19/1/1 20/1/1 21/1/1
f 21/1/1 22/1/1 25/1/1
f 22/1/1 23/1/1 25/1/1
f 23/1/1 24/1/1 25/1/1
f 25/1/1 26/1/1 27/1/1
f 27/1/1 28/1/1 25/1/1
f 28/1/1 29/1/1 25/1/1
f 29/1/1 30/1/1 31/1/1
f 31/1/1 32/1/1 33/1/1
f 33/1/1 34/1/1 35/1/1
f 35/1/1 36/1/1 37/1/1
f 37/1/1 38/1/1 41/1/1
f 38/1/1 39/1/1 41/1/1
f 39/1/1 40/1/1 41/1/1
f 41/1/1 42/1/1 43/1/1
f 43/1/1 44/1/1 41/1/1
f 44/1/1 45/1/1 41/1/1
f 45/1/1 46/1/1 47/1/1
f 47/1/1 48/1/1 49/1/1
f 49/1/1 50/1/1 51/1/1
f 51/1/1 52/1/1 53/1/1
f 53/1/1 54/1/1 57/1/1
f 54/1/1 55/1/1 57/1/1
f 55/1/1 56/1/1 57/1/1
f 57/1/1 58/1/1 59/1/1
f 59/1/1 60/1/1 57/1/1
f 60/1/1 61/1/1 57/1/1
f 61/1/1 62/1/1 63/1/1
f 63/1/1 64/1/1 1/1/1
f 1/1/1 3/1/1 9/1/1
f 3/1/1 5/1/1 9/1/1
f 13/1/1 15/1/1 9/1/1
f 15/1/1 17/1/1 9/1/1
f 17/1/1 19/1/1 25/1/1
f 19/1/1 21/1/1 25/1/1
f 29/1/1 31/1/1 25/1/1
f 31/1/1 33/1/1 25/1/1
f 33/1/1 35/1/1 41/1/1
f 35/1/1 37/1/1 41/1/1
f 45/1/1 47/1/1 41/1/1
f 47/1/1 49/1/1 41/1/1
f 49/1/1 51/1/1 57/1/1
f 51/1/1 53/1/1 57/1/1
f 61/1/1 63/1/1 57/1/1
f 63/1/1 1/1/1 57/1/1
f 1/1/1 9/1/1 17/1/1
f 17/1/1 25/1/1 33/1/1
f 33/1/1 41/1/1 49/1/1
f 49/1/1 57/1/1 1/1/1
f 1/1/1 17/1/1 33/1/1
